<svg width="47" height="43" viewBox="0 0 47 43" fill="none" xmlns="http://www.w3.org/2000/svg">
<path d="M32.8424 36.6164L31.5944 26.6246C31.4175 25.2093 30.7297 23.9074 29.6603 22.9637C28.5909 22.02 27.2136 21.4995 25.7873 21.5H21.4895C20.0639 21.5004 18.6875 22.0214 17.6189 22.965C16.5503 23.9086 15.8631 25.21 15.6863 26.6246L14.4363 36.6164C14.3678 37.1654 14.4167 37.7226 14.58 38.2512C14.7433 38.7798 15.0172 39.2675 15.3835 39.6821C15.7498 40.0967 16.2 40.4287 16.7045 40.6559C17.2089 40.8831 17.7558 41.0004 18.309 41H28.9716C29.5247 41.0001 30.0715 40.8826 30.5756 40.6553C31.0798 40.4279 31.5299 40.096 31.8959 39.6814C32.262 39.2668 32.5357 38.7791 32.6989 38.2507C32.8621 37.7223 32.911 37.1652 32.8424 36.6164V36.6164Z" stroke="#769CCD" stroke-width="3.9" stroke-linecap="round" stroke-linejoin="round"/>
<path d="M23.64 13.7C26.8709 13.7 29.49 11.0809 29.49 7.85C29.49 4.61913 26.8709 2 23.64 2C20.4092 2 17.79 4.61913 17.79 7.85C17.79 11.0809 20.4092 13.7 23.64 13.7Z" stroke="#769CCD" stroke-width="3.9"/>
<path d="M8.03965 19.55C10.1936 19.55 11.9396 17.8039 11.9396 15.65C11.9396 13.4961 10.1936 11.75 8.03965 11.75C5.88574 11.75 4.13965 13.4961 4.13965 15.65C4.13965 17.8039 5.88574 19.55 8.03965 19.55Z" stroke="#769CCD" stroke-width="3.9"/>
<path d="M39.2398 19.55C41.3938 19.55 43.1398 17.8039 43.1398 15.65C43.1398 13.4961 41.3938 11.75 39.2398 11.75C37.0859 11.75 35.3398 13.4961 35.3398 15.65C35.3398 17.8039 37.0859 19.55 39.2398 19.55Z" stroke="#769CCD" stroke-width="3.9"/>
<path d="M8.03911 25.3999H7.44241C6.5192 25.3998 5.62589 25.7272 4.9214 26.3238C4.21691 26.9205 3.74692 27.7477 3.59506 28.6584L2.94571 32.5584C2.85252 33.1171 2.88218 33.6895 3.03262 34.2356C3.18306 34.7818 3.45066 35.2886 3.81683 35.7208C4.18299 36.153 4.63892 36.5003 5.1529 36.7385C5.66688 36.9766 6.22658 37.1 6.79306 37.0999H13.8891" stroke="#769CCD" stroke-width="3.9" stroke-linecap="round" stroke-linejoin="round"/>
<path d="M39.2396 25.3999H39.8363C40.7596 25.3998 41.6529 25.7272 42.3574 26.3238C43.0618 26.9205 43.5318 27.7477 43.6837 28.6584L44.333 32.5584C44.4262 33.1171 44.3966 33.6895 44.2461 34.2356C44.0957 34.7818 43.8281 35.2886 43.4619 35.7208C43.0958 36.153 42.6398 36.5003 42.1259 36.7385C41.6119 36.9766 41.0522 37.1 40.4857 37.0999H33.3896" stroke="#769CCD" stroke-width="3.9" stroke-linecap="round" stroke-linejoin="round"/>
</svg>
