<svg width="36" height="48" viewBox="0 0 36 48" fill="none" xmlns="http://www.w3.org/2000/svg">
<g clip-path="url(#clip0_237_84)">
<path d="M4.00325 5.95825H5.95833C6.57899 4.65487 7.91341 4.00317 9.96159 4.00317H15.9199H19.8301C18.5267 4.00317 22 4.5 19.8301 4.00317C21.1335 4.00317 21.7852 4.6548 21.7852 5.95818L19.8301 4.00317H25.7884C27.8366 4.00317 29.171 4.65487 29.7917 5.95825H31.7467C32.8639 5.95825 33.8104 6.36168 34.5863 7.16854C35.3621 7.9754 35.75 8.96845 35.75 10.1477V43.6633C35.75 44.7805 35.3621 45.727 34.5863 46.5028C33.8104 47.2787 32.8639 47.6666 31.7467 47.6666H4.00325C2.88607 47.6666 1.93956 47.2632 1.16373 46.4563C0.38791 45.6494 0 44.6564 0 43.4771V10.1477C0 8.96845 0.38791 7.9754 1.16373 7.16854C1.93956 6.36168 2.88607 5.95825 4.00325 5.95825ZM24.8574 7.91333H10.8926C10.2719 7.91333 9.96159 8.25469 9.96159 8.93742C9.96159 9.62014 10.2719 9.96151 10.8926 9.96151H24.8574C25.4781 9.96151 25.7884 9.62014 25.7884 8.93742C25.7884 8.25469 25.4781 7.91333 24.8574 7.91333ZM4.00325 43.6633H31.7467V9.96151H29.7917C29.7296 10.2718 29.6055 10.6442 29.4193 11.0787C29.2331 11.5132 28.7831 12.0873 28.0693 12.801C27.3556 13.5148 26.5953 13.8717 25.7884 13.8717H9.96159C7.72721 13.8717 6.39279 12.5683 5.95833 9.96151H4.00325V43.6633Z" fill="#769CCD"/>
<path d="M8 22.5H28" stroke="#769CCD" stroke-width="3" stroke-linecap="round"/>
<path d="M8 29H28" stroke="#769CCD" stroke-width="3" stroke-linecap="round"/>
<path d="M8 35.5H28" stroke="#769CCD" stroke-width="3" stroke-linecap="round"/>
</g>
<defs>
<clipPath id="clip0_237_84">
<rect width="35.75" height="47.6667" fill="white" transform="matrix(-1 0 0 1 35.75 0)"/>
</clipPath>
</defs>
</svg>
